{"title":"Something.Real.and.Good.2013.WEBRip XViD juggs","uid":8247787,"size":741380231,"categoryP":"video","categoryS":"movies","magnet":"?xt=urn:btih:8173050672d42fbd2f3db32e91b43bdc7738f01a&amp;dn=Something.Real.and.Good.2013.WEBRip+XViD+juggs&amp;tr=udp%3A%2F%2Ftracker.openbittorrent.com%3A80&amp;tr=udp%3A%2F%2Fopen.demonii.com%3A1337&amp;tr=udp%3A%2F%2Ftracker.coppersurfer.tk%3A6969&amp;tr=udp%3A%2F%2Fexodus.desync.com%3A6969","seeders":9,"leechers":2,"uploader":"juggs99","files":3,"time":1363100115,"description":"Source : NGB\n\n\nFormat : AVI\nFormat/Info : Audio Video Interleave\nFile size : 699 MiB\nDuration : 1h 21mn\nOverall bit rate : 1 204 Kbps\nWriting library : VirtualDub build 32842/release\n\nVideo\nID : 0\nFormat : MPEG-4 Visual\nFormat profile : Advanced Simple@L5\nFormat settings, BVOP : 2\nFormat settings, QPel : No\nFormat settings, GMC : No warppoints\nFormat settings, Matrix : Default (H.263)\nMuxing mode : Packed bitstream\nCodec ID : XVID\nCodec ID/Hint : XviD\nDuration : 1h 21mn\nBit rate : 1 067 Kbps\nWidth : 640 pixels\nHeight : 272 pixels\nDisplay aspect ratio : 2.35:1\nFrame rate : 23.976 fps\nColor space : YUV\nChroma subsampling : 4:2:0\nBit depth : 8 bits\nScan type : Progressive\nCompression mode : Lossy\nBits/(Pixel*Frame) : 0.256\nStream size : 620 MiB (89%)\nWriting library : XviD 64\n\nAudio\nID : 1\nFormat : MPEG Audio\nFormat version : Version 1\nFormat profile : Layer 3\nCodec ID : 55\nCodec ID/Hint : MP3\nDuration : 1h 21mn\nBit rate mode : Constant\nBit rate : 128 Kbps\nChannel(s) : 2 channels\nSampling rate : 44.1 KHz\nCompression mode : Lossy\nStream size : 74.4 MiB (11%)\nAlignment : Split accross interleaves\nInterleave, duration : 42 ms (1.00 video frame)\nInterleave, preload duration : 500 ms\nWriting library : LAME3.99r\nEncoding settings : -m s -V 4 -q 3 -lowpass 17 -b 128\n\nPlot\nA young man and woman meet by chance in an airport while waiting for a delayed flight. When the plane is rerouted, they decide to make the best of it, and over the course of one night,\n\n &lt;a href=&quot;\nhttp://www.shotpix.com/images/90227654978721330286.png&quot; rel=&quot;nofollow&quot; target=&quot;_NEW&quot;&gt;\nhttp://www.shotpix.com/images/90227654978721330286.png&lt;/a&gt; &lt;a href=&quot;\nhttp://www.shotpix.com/images/21559466918812938227.png&quot; rel=&quot;nofollow&quot; target=&quot;_NEW&quot;&gt;\nhttp://www.shotpix.com/images/21559466918812938227.png&lt;/a&gt; &lt;a href=&quot;\nhttp://www.shotpix.com/images/76940369674108008693.png&quot; rel=&quot;nofollow&quot; target=&quot;_NEW&quot;&gt;\nhttp://www.shotpix.com/images/76940369674108008693.png&lt;/a&gt;\n","torrent":{"xt":"urn:btih:8173050672d42fbd2f3db32e91b43bdc7738f01a","amp;dn":"Something.Real.and.Good.2013.WEBRip+XViD+juggs","amp;tr":["udp%3A%2F%2Ftracker.openbittorrent.com%3A80","udp%3A%2F%2Fopen.demonii.com%3A1337","udp%3A%2F%2Ftracker.coppersurfer.tk%3A6969","udp%3A%2F%2Fexodus.desync.com%3A6969"],"infoHash":"8173050672d42fbd2f3db32e91b43bdc7738f01a","infoHashBuffer":{"type":"Buffer","data":[129,115,5,6,114,212,47,189,47,61,179,46,145,180,59,220,119,56,240,26]},"announce":[],"urlList":[]}}